<svg version="1" xmlns="http://www.w3.org/2000/svg" width="853.333" height="853.333" viewBox="0 0 640.000000 640.000000"><path d="M184 181c-33.3 14.2-61.1 26.3-61.9 26.8-.8.5-1.8 1.5-2.3 2.3C118 213.3 9 480 9 481.2c0 .8.5 1.9 1.2 2.6.9.9 45.3 1.2 193.8 1.2 186.2 0 192.8-.1 196.6-1.9 2.1-1 29.3-12.8 60.4-26.1 31.1-13.4 57.1-24.8 57.8-25.5 1.3-1.2 111-266.9 111.9-271.3 1.3-5.6 14.7-5.2-194.1-5.2H244.4L184 181zm422.5-17c-1.1.4-24 10.3-50.8 21.9L506.8 207H367.4c-76.7 0-139.4-.3-139.4-.6 0-.4 3.9-10.3 8.7-22l8.8-21.4 181.5.1c99.8 0 180.6.4 179.5.9zm-368.8 3.2c-.2.7-4 10-8.3 20.5l-7.8 19.3-39.6-.1c-25.9 0-38.8-.4-37.5-1 5.7-2.7 92.1-39.8 92.9-39.9.4 0 .6.6.3 1.2zm383.2-.5c0 .5-24 59.1-53.3 130.3l-53.2 129.5-46.2.3c-25.4.1-46.2-.1-46.2-.4 0-1.5 86.3-211 87.4-212.1 1-1.1 109.2-48.2 110.9-48.3.4 0 .7.3.6.7zm-402.9 49c0 .5-19.5 48.2-43.3 106.1l-43.3 105.3-55.7 24.1C45 464.4 19.6 475 19.4 474.7c-.4-.4 78.9-195.1 102.9-252.5l3-7.2h46.3c25.5 0 46.4.3 46.4.7zm283-.5c0 .2-19.5 47.8-43.3 105.8l-43.4 105.5-137.8.3c-75.9.1-138.2-.1-138.5-.5-.5-.6 46-115 85.4-210.1.4-.9 29.2-1.2 139.1-1.2 76.2 0 138.5.1 138.5.2zm2 216.5c-.8.3-23.4 10-50.2 21.5-26.8 11.5-49.2 20.8-49.6 20.6-.7-.2 9-25.1 15.8-40.6l1-2.2 42.2.1c23.3 0 41.6.3 40.8.6zm-92.7 4.5c-.9 2.4-5.1 12.6-9.3 22.8l-7.7 18.5-182.8.3c-100.6.1-182.6-.1-182.2-.4.3-.3 23.9-10.6 52.4-23l51.8-22.3 139.7-.1H412l-1.7 4.2z"/></svg>